<svg xmlns="http://www.w3.org/2000/svg" width="312" height="167" fill="none"><g clip-path="url(#a)"><path fill="#A291FD" d="M146.85 38.708c-.099.08-3.126-3.582-6.754-8.184-3.628-4.602-6.485-8.39-6.386-8.47.098-.081 3.126 3.581 6.753 8.184 3.628 4.602 6.485 8.39 6.387 8.47zm12.326 2.704c-.126.009-.986-9.25-1.917-20.684C156.318 9.285 155.673.01 155.799 0c.125-.009.985 9.25 1.917 20.684.931 11.434 1.585 20.71 1.46 20.72v.008zm9.564-2.265c-.116-.054 2.383-5.588 5.59-12.357 3.197-6.769 5.893-12.213 6.01-12.16.116.054-2.383 5.588-5.59 12.357-3.197 6.77-5.893 12.213-6.01 12.16zm-3.958 81.141c.098-.081 3.072 3.626 6.637 8.273 3.565 4.647 6.369 8.479 6.27 8.56-.098.081-3.072-3.626-6.637-8.273-3.565-4.648-6.369-8.48-6.27-8.56zm-8.222.832c.125 0 .86 9.267 1.639 20.711.779 11.452 1.299 20.737 1.173 20.746-.125 0-.86-9.258-1.639-20.711-.779-11.443-1.299-20.737-1.173-20.737v-.009zm-7.355-1.889c.117.054-2.463 5.551-5.75 12.276-3.297 6.724-6.055 12.133-6.172 12.07-.116-.063 2.463-5.552 5.751-12.276 3.296-6.724 6.055-12.133 6.171-12.07z"/><path fill="#212121" d="m404.539 112.847-.295-2.158-26.997-6.125a132.18 132.18 0 0 0-14.968-2.507l-92.966-10.163-39.779-7.628-1.182 6.16 39.904 7.656.125.027 93.217 10.189c4.784.519 9.576 1.325 14.26 2.391l22.751 5.166 19.867 146.836 6.082 11.461c.807-2.758 1.03-5.65.645-8.497l-20.673-152.79.009-.018z"/><path fill="#292929" d="m202.948 110.852-17.367-2.021c-6.593-.767-11.318-6.735-10.55-13.325l3.63-31.173c.768-6.59 6.737-11.314 13.33-10.547l17.367 2.021c14.218 1.655 24.414 14.533 22.759 28.746l-.414 3.548c-1.655 14.213-14.537 24.405-28.755 22.751z"/><path fill="#000" d="M188.187 109.14s7.471-7.942 9.746-29.692c1.666-15.956-3.565-25.375-3.565-25.375l-2.105-.242s3.511 23.137 1.263 28.518c-2.248 5.382-6.27 26.683-6.27 26.683l.922.108h.009z" opacity=".3"/><path fill="#292929" d="M173.657 80.03c2.311-19.824 4.345-37.293 15.004-34.634 5.84 1.46 8.948 17.326 6.646 37.16-2.311 19.823-9.02 33.971-15.003 34.633-10.194 1.128-8.949-17.326-6.647-37.159z"/><path fill="#292929" d="M190.416 81.99c2.308-19.824.093-36.37-4.949-36.957-5.041-.587-11 15.008-13.308 34.833-2.309 19.825-.094 36.371 4.948 36.958 5.041.587 11-15.009 13.309-34.834z"/><path fill="#000" d="M190.416 81.99c2.308-19.824.093-36.37-4.949-36.957-5.041-.587-11 15.008-13.308 34.833-2.309 19.825-.094 36.371 4.948 36.958 5.041.587 11-15.009 13.309-34.834z" opacity=".3"/><path fill="#666" d="M180.304 117.189c-.036-.072 1.173-.063 2.74-1.316 1.568-1.209 3.341-3.537 4.945-6.707 3.224-6.339 5.858-15.938 7.094-26.718 1.254-10.78.931-20.729-.699-27.65-.806-3.448-1.988-6.134-3.26-7.647-1.281-1.549-2.508-1.692-2.463-1.764 0 0 .286.027.77.242.493.206 1.164.645 1.827 1.406 1.353 1.513 2.589 4.217 3.449 7.691 1.728 6.957 2.096 16.959.842 27.784-1.245 10.817-3.942 20.46-7.265 26.817-1.657 3.17-3.484 5.507-5.123 6.698-.806.6-1.541.913-2.06 1.039-.511.134-.797.125-.797.125z"/><path fill="#666" d="M177.107 116.813s.277 0 .77-.152c.493-.125 1.182-.466 1.899-1.119 1.46-1.29 2.983-3.743 4.326-6.957 2.732-6.447 4.953-15.947 6.199-26.549 1.236-10.61 1.146-20.37-.063-27.265-.591-3.438-1.487-6.17-2.553-7.799-.519-.815-1.084-1.334-1.523-1.602-.43-.278-.707-.314-.698-.35 0 0 .071 0 .197.045a2 2 0 0 1 .546.224c.457.242 1.066.761 1.621 1.585 1.138 1.638 2.087 4.387 2.732 7.843 1.299 6.93 1.442 16.727.197 27.382-1.254 10.637-3.529 20.173-6.359 26.629-1.398 3.223-2.983 5.677-4.515 6.966-.752.645-1.487.967-1.997 1.074-.251.072-.457.063-.591.072-.135 0-.197 0-.197-.009l.009-.018z"/><path fill="#A291FD" d="M183.403 70.36c-.376 3.25-1.522 5.793-2.553 5.668-1.03-.117-1.558-2.856-1.182-6.107.376-3.25 1.523-5.793 2.553-5.668 1.03.117 1.558 2.857 1.182 6.107zm-2.105 21.803c-.376 3.25-1.523 5.793-2.553 5.668-1.03-.126-1.559-2.857-1.182-6.107.376-3.25 1.522-5.793 2.552-5.668 1.031.117 1.559 2.856 1.183 6.107z"/><path fill="#292929" d="m229.281 92.637 12.173 1.424 1.648-7.71-11.125-3.447-2.696 9.733z"/><path fill="#666" d="M241.384 94.294c-.134-.018.108-1.845.627-4.02.529-2.185.959-3.94 1.084-3.922.134.018-.107 1.844-.627 4.02-.528 2.185-.958 3.94-1.084 3.922zm-9.056-16.475s.089.286.17.814c.08.529.161 1.299.215 2.248a34.918 34.918 0 0 1-.403 7.45c-.466 2.883-1.29 5.426-2.06 7.172a19.649 19.649 0 0 1-1.004 2.032c-.268.466-.43.708-.456.69-.072-.036.474-1.084 1.155-2.848.69-1.763 1.442-4.27 1.908-7.118.466-2.847.555-5.47.537-7.36-.027-1.898-.134-3.071-.053-3.08h-.009z"/><path fill="#212121" d="M-120.906 317.624h-.054l-32.04.09 2.042-6.492 30.025.134h.044c8.357 0 14.493-2.462 18.739-7.521 7.399-8.811 8.957-25.564 4.649-49.784-.986-5.552-5.894-21.23-8.626-29.611-5.464-16.717-7.381-33.81-5.715-50.814l4.748-48.432-.941-3.295 2.813-.967c4.98-1.71 46.854-10.727 114.768-25.304 26.925-5.784 54.773-11.756 81.609-17.576l1.325 6.124a37147.773 37147.773 0 0 1-81.627 17.577c-51.324 11.013-100.051 21.472-111.758 24.462l-4.712 48.011c-1.585 16.135.242 32.369 5.437 48.253.77 2.355 7.551 23.209 8.841 30.462 4.72 26.494 2.75 44.456-6.02 54.905-5.436 6.483-13.363 9.76-23.556 9.76l.009.018z"/><path fill="#292929" d="m94.164 52.856 17.198-3.152c6.528-1.197 12.794 3.126 13.991 9.652l5.662 30.869c1.197 6.526-3.127 12.79-9.656 13.986l-17.197 3.152c-14.08 2.581-27.601-6.748-30.183-20.821l-.644-3.514c-2.582-14.074 6.75-27.592 20.829-30.172z"/><path fill="#191919" d="M108.773 50.151s-4.81 9.787-.618 31.24c3.081 15.742 10.838 23.218 10.838 23.218l2.087-.385s-10.131-21.095-9.566-26.898c.573-5.802-1.828-27.354-1.828-27.354l-.913.17v.01z" opacity=".3"/><path fill="#292929" d="M131.194 73.727c3.601 19.627 6.78 36.935-4.192 37.508-6.01.314-13.642-13.95-17.243-33.577-3.6-19.627-1.325-35.127 4.192-37.508 9.414-4.065 13.642 13.95 17.243 33.577z"/><path fill="#292929" d="M132.689 73.45c3.601 19.626 2.473 36.29-2.517 37.203-4.998.913-11.966-14.255-15.567-33.89-3.601-19.628-2.472-36.291 2.517-37.204 4.998-.914 11.967 14.254 15.567 33.89z"/><path fill="#212121" d="M132.689 73.45c3.601 19.626 2.473 36.29-2.517 37.203-4.998.913-11.966-14.255-15.567-33.89-3.601-19.628-2.472-36.291 2.517-37.204 4.998-.914 11.967 14.254 15.567 33.89z" opacity=".3"/><path fill="#A291FD" d="m149.251 62.642-27.615 5.06a.172.172 0 0 1-.153-.064c-2.069-2.793-2.579-5.56-1.522-8.3a.162.162 0 0 1 .116-.098l27.624-5.068a4.301 4.301 0 1 1 1.55 8.461v.01z"/><path fill="#666" d="M149.252 62.642s.268-.063.752-.26a4.295 4.295 0 0 0 1.773-1.36 4.21 4.21 0 0 0 .807-3.34c-.233-1.343-1.299-2.785-2.983-3.242-.842-.268-1.729-.134-2.687.072-.959.179-1.953.367-2.983.564-2.06.385-4.264.797-6.584 1.227-4.639.86-9.736 1.8-15.083 2.784-.672.126-1.335.242-1.998.367l-.125.027s.027-.009.027-.026c.026-.045 0 0-.009.044l-.036.117c-.054.152-.117.304-.152.465-.09.314-.162.627-.215.94a7.331 7.331 0 0 0 .394 3.734c.215.582.483 1.146.806 1.675.161.26.322.528.501.77l.135.188c.045.062.116.143.054.098-.081 0 .035-.009.107-.027l.224-.044c1.218-.224 2.4-.44 3.565-.645 4.631-.833 8.805-1.576 12.334-2.212 3.484-.609 6.315-1.101 8.321-1.45.95-.152 1.711-.278 2.266-.367.52-.081.798-.117.798-.099 0 .018-.269.08-.78.188-.555.117-1.308.269-2.248.457-1.997.385-4.828.931-8.294 1.594-3.521.662-7.686 1.441-12.316 2.31-1.156.215-2.347.438-3.565.662l-.224.045-.117.018s-.161.027-.233-.018c-.08-.018-.179-.143-.179-.152l-.071-.099-.135-.197c-.188-.25-.349-.528-.519-.797a9.864 9.864 0 0 1-.842-1.755c-.466-1.226-.645-2.614-.421-3.957.053-.34.125-.672.224-1.003.044-.17.107-.322.161-.492l.045-.126s.009-.08.089-.179a.393.393 0 0 1 .242-.134l.125-.027c.663-.125 1.326-.242 1.998-.367 5.347-.976 10.444-1.907 15.093-2.75 2.32-.42 4.523-.814 6.592-1.181 1.03-.188 2.025-.358 2.983-.537.931-.197 1.962-.34 2.839-.036 1.819.51 2.929 2.086 3.153 3.51a4.4 4.4 0 0 1-.922 3.5c-.654.789-1.38 1.165-1.881 1.335-.502.18-.789.18-.789.18l-.017.008z"/><path fill="#A291FD" d="m153.434 85.439-27.705 5.077c-1.934-2.606-2.758-5.373-1.549-8.453l27.704-5.077a4.301 4.301 0 1 1 1.55 8.462v-.01z"/><path fill="#666" d="M153.435 85.439s.268-.063.752-.26a4.303 4.303 0 0 0 1.774-1.36 4.21 4.21 0 0 0 .806-3.34c-.233-1.344-1.299-2.785-2.992-3.242-.842-.269-1.729-.125-2.687.08-.959.18-1.953.368-2.983.565-2.06.385-4.263.797-6.583 1.226a11894.782 11894.782 0 0 1-17.297 3.188l.171-.143c-.574 1.423-.708 2.972-.368 4.396.332 1.433 1.048 2.713 1.881 3.832l-.215-.09c8.008-1.432 14.923-2.676 19.894-3.563 2.437-.42 4.38-.752 5.769-.994.645-.098 1.155-.188 1.549-.241.35-.054.538-.072.538-.063 0 .009-.18.063-.529.134-.385.08-.896.188-1.532.323-1.379.268-3.323.644-5.75 1.119-4.953.931-11.859 2.23-19.858 3.725l-.134.026-.081-.116c-.86-1.155-1.621-2.48-1.971-4.002-.367-1.514-.224-3.179.377-4.674l.044-.117.126-.027c.725-.134 1.46-.268 2.203-.403 5.357-.976 10.453-1.907 15.102-2.748 2.32-.421 4.523-.815 6.592-1.191 1.031-.188 2.025-.367 2.992-.537.932-.197 1.962-.34 2.84-.045 1.818.51 2.938 2.086 3.153 3.51a4.436 4.436 0 0 1-.914 3.5 4.213 4.213 0 0 1-1.881 1.335c-.502.179-.788.179-.788.179v.018zM113.951 40.15c.054.063-1.102.403-2.239 2.06-1.147 1.611-2.15 4.36-2.759 7.852-1.218 7.002-.923 16.959 1.048 27.623 1.962 10.673 5.177 20.093 8.769 26.235 1.782 3.062 3.699 5.283 5.365 6.357 1.675 1.111 2.893.878 2.867.967 0 0-.278.063-.807 0-.528-.053-1.298-.277-2.158-.805-1.738-1.048-3.717-3.278-5.554-6.34-3.69-6.151-6.968-15.598-8.939-26.316-1.979-10.709-2.23-20.72-.914-27.766.654-3.519 1.72-6.286 2.938-7.906.601-.815 1.21-1.325 1.666-1.603.448-.278.726-.35.726-.35l-.009-.008z"/><path fill="#666" d="M117.121 39.568s-.26.09-.69.367c-.43.269-.994.788-1.487 1.63-1.012 1.665-1.756 4.45-2.105 7.915-.725 6.957-.063 16.699 1.854 27.202 1.926 10.512 4.873 19.815 8.053 26.047 1.576 3.116 3.233 5.462 4.729 6.707.744.626 1.433.958 1.926 1.083.493.143.77.09.77.134 0 0-.062.009-.197.018-.134 0-.331 0-.591-.053-.511-.099-1.245-.412-2.015-1.039-1.568-1.227-3.288-3.582-4.909-6.698-3.278-6.24-6.279-15.57-8.214-26.118-1.925-10.54-2.543-20.317-1.728-27.319.394-3.492 1.191-6.303 2.275-7.978.528-.842 1.137-1.36 1.594-1.612.224-.143.412-.197.547-.232a.87.87 0 0 1 .197-.054h-.009z"/><path fill="#292929" d="m62.188 83.37 2.015 7.871 11.017-1.603.045-9.437-13.078 3.17z"/><path fill="#666" d="M77.335 95.217s-.206-.224-.51-.672c-.305-.448-.7-1.128-1.13-1.997-.868-1.728-1.808-4.262-2.364-7.18-.546-2.91-.609-5.615-.439-7.549.08-.967.197-1.746.314-2.274.116-.529.197-.815.224-.815.08.018-.135 1.19-.215 3.107-.09 1.916.018 4.566.564 7.44.555 2.866 1.424 5.382 2.212 7.128.78 1.755 1.407 2.767 1.335 2.812h.009z"/></g><defs><clipPath id="a"><path fill="#fff" d="M0 0h312v167H0z"/></clipPath></defs></svg>