<svg xmlns="http://www.w3.org/2000/svg" width="606" height="422" fill="none"><g clip-path="url(#a)" shape-rendering="crispEdges"><g filter="url(#b)"><path fill="url(#c)" d="M182 75.197V7a7 7 0 0 0-7-7H7a7 7 0 0 0-7 7v407.5a7 7 0 0 0 7 7h168a7 7 0 0 0 7-7V263.303a10 10 0 0 0-5.039-8.682l-24.922-14.242a10 10 0 0 1-5.039-8.682V106.803a10 10 0 0 1 5.039-8.682l24.922-14.242A10 10 0 0 0 182 75.197z"/><path stroke="url(#d)" d="M182 75.197V7a7 7 0 0 0-7-7H7a7 7 0 0 0-7 7v407.5a7 7 0 0 0 7 7h168a7 7 0 0 0 7-7V263.303a10 10 0 0 0-5.039-8.682l-24.922-14.242a10 10 0 0 1-5.039-8.682V106.803a10 10 0 0 1 5.039-8.682l24.922-14.242A10 10 0 0 0 182 75.197z"/></g><g filter="url(#e)"><path fill="url(#f)" d="M424 75.197V7a7 7 0 0 1 7-7h168a7 7 0 0 1 7 7v407.5a7 7 0 0 1-7 7H431a7 7 0 0 1-7-7V263.303a10 10 0 0 1 5.039-8.682l24.922-14.242a10 10 0 0 0 5.039-8.682V106.803a10 10 0 0 0-5.039-8.682l-24.922-14.242A10 10 0 0 1 424 75.197z"/><path stroke="url(#g)" d="M424 75.197V7a7 7 0 0 1 7-7h168a7 7 0 0 1 7 7v407.5a7 7 0 0 1-7 7H431a7 7 0 0 1-7-7V263.303a10 10 0 0 1 5.039-8.682l24.922-14.242a10 10 0 0 0 5.039-8.682V106.803a10 10 0 0 0-5.039-8.682l-24.922-14.242A10 10 0 0 1 424 75.197z"/></g></g><defs><linearGradient id="c" x1="343.5" x2="466.767" y1="-164.5" y2="260.887" gradientUnits="userSpaceOnUse"><stop stop-color="#1F1F1F"/><stop offset=".71" stop-color="#0F0F0F"/></linearGradient><linearGradient id="d" x1="216" x2="289.148" y1="-33.5" y2="292.965" gradientUnits="userSpaceOnUse"><stop stop-color="#292929"/><stop offset=".628" stop-color="#292929" stop-opacity="0"/></linearGradient><linearGradient id="f" x1="732.5" x2="260.5" y1="-178.5" y2="439.5" gradientUnits="userSpaceOnUse"><stop stop-color="#1F1F1F"/><stop offset=".701" stop-color="#0F0F0F"/></linearGradient><linearGradient id="g" x1="390" x2="316.852" y1="-33.5" y2="292.965" gradientUnits="userSpaceOnUse"><stop stop-color="#292929"/><stop offset=".628" stop-color="#292929" stop-opacity="0"/></linearGradient><filter id="b" width="431.2" height="670.7" x="-118.6" y="-124.6" color-interpolation-filters="sRGB" filterUnits="userSpaceOnUse"><feFlood flood-opacity="0" result="BackgroundImageFix"/><feColorMatrix in="SourceAlpha" result="hardAlpha" values="0 0 0 0 0 0 0 0 0 0 0 0 0 0 0 0 0 0 127 0"/><feOffset dx="6"/><feGaussianBlur stdDeviation="62.05"/><feComposite in2="hardAlpha" operator="out"/><feColorMatrix values="0 0 0 0 0 0 0 0 0 0 0 0 0 0 0 0 0 0 0.15 0"/><feBlend in2="BackgroundImageFix" result="effect1_dropShadow_484_1104"/><feBlend in="SourceGraphic" in2="effect1_dropShadow_484_1104" result="shape"/></filter><filter id="e" width="431.2" height="670.7" x="293.4" y="-124.6" color-interpolation-filters="sRGB" filterUnits="userSpaceOnUse"><feFlood flood-opacity="0" result="BackgroundImageFix"/><feColorMatrix in="SourceAlpha" result="hardAlpha" values="0 0 0 0 0 0 0 0 0 0 0 0 0 0 0 0 0 0 127 0"/><feOffset dx="-6"/><feGaussianBlur stdDeviation="62.05"/><feComposite in2="hardAlpha" operator="out"/><feColorMatrix values="0 0 0 0 0 0 0 0 0 0 0 0 0 0 0 0 0 0 0.15 0"/><feBlend in2="BackgroundImageFix" result="effect1_dropShadow_484_1104"/><feBlend in="SourceGraphic" in2="effect1_dropShadow_484_1104" result="shape"/></filter><clipPath id="a"><path fill="#fff" d="M0 0h606v421.5H0z"/></clipPath></defs></svg>